G04*
G04 #@! TF.GenerationSoftware,Altium Limited,Altium Designer,20.0.10 (225)*
G04*
G04 Layer_Physical_Order=3*
G04 Layer_Color=32768*
%FSLAX25Y25*%
%MOIN*%
G70*
G01*
G75*
%ADD32C,0.06800*%
%ADD62C,0.04000*%
%ADD77C,0.07937*%
%ADD78R,0.09000X0.09000*%
%ADD79C,0.07000*%
%ADD80R,0.09000X0.09000*%
%ADD81C,0.06756*%
%ADD82C,0.18000*%
%ADD83O,0.07150X0.13252*%
%ADD84O,0.06362X0.10299*%
%ADD85C,0.07622*%
%ADD86C,0.07150*%
%ADD87C,0.07543*%
G36*
X486185Y477587D02*
X486185D01*
Y477195D01*
X485885Y476472D01*
X485332Y475918D01*
X484608Y475618D01*
X483825D01*
X483102Y475918D01*
X482548Y476472D01*
X482248Y477195D01*
Y477587D01*
X450752D01*
Y477195D01*
X450452Y476472D01*
X449898Y475918D01*
X449175Y475618D01*
X448392D01*
X447668Y475918D01*
X447115Y476472D01*
X446815Y477195D01*
X446815Y477587D01*
Y502429D01*
X486185D01*
Y477587D01*
D02*
G37*
G36*
X489138Y465815D02*
X484413D01*
Y473768D01*
X489138D01*
Y465815D01*
D02*
G37*
G36*
X448587D02*
X443862D01*
Y473768D01*
X448587D01*
Y465815D01*
D02*
G37*
G36*
X667075Y461095D02*
Y460961D01*
X666973Y460715D01*
X666785Y460527D01*
X666539Y460425D01*
X614461D01*
X614215Y460527D01*
X614027Y460715D01*
X613925Y460961D01*
Y461095D01*
Y499795D01*
X667075D01*
Y461095D01*
D02*
G37*
G36*
X597075D02*
Y460961D01*
X596973Y460715D01*
X596785Y460527D01*
X596539Y460425D01*
X544461D01*
X544215Y460527D01*
X544027Y460715D01*
X543925Y460961D01*
Y461095D01*
Y499795D01*
X597075D01*
Y461095D01*
D02*
G37*
G36*
X653955Y458675D02*
X653423Y456665D01*
X654086Y455238D01*
X656151Y453603D01*
X647991D01*
X649977Y455085D01*
X651182Y456979D01*
X649977Y458856D01*
X647991Y460019D01*
X656151D01*
X653955Y458675D01*
D02*
G37*
G36*
X560525Y458666D02*
X559993Y456656D01*
X560656Y455229D01*
X562721Y453593D01*
X554561D01*
X556547Y455075D01*
X557752Y456970D01*
X556547Y458847D01*
X554561Y460009D01*
X562721D01*
X560525Y458666D01*
D02*
G37*
G36*
X630489Y458657D02*
X629957Y456647D01*
X630620Y455220D01*
X632685Y453584D01*
X624525D01*
X626511Y455066D01*
X627716Y456960D01*
X626511Y458838D01*
X624525Y460000D01*
X632685D01*
X630489Y458657D01*
D02*
G37*
G36*
X584137Y458650D02*
X583605Y456640D01*
X584268Y455213D01*
X586333Y453578D01*
X578172D01*
X580158Y455059D01*
X581363Y456954D01*
X580158Y458831D01*
X578172Y459994D01*
X586333D01*
X584137Y458650D01*
D02*
G37*
G36*
X642532Y452978D02*
X642000Y450968D01*
X642664Y449541D01*
X644728Y447906D01*
X636568D01*
X638554Y449388D01*
X639759Y451282D01*
X638554Y453159D01*
X636568Y454322D01*
X644728D01*
X642532Y452978D01*
D02*
G37*
G36*
X572278Y452317D02*
X571746Y450307D01*
X572409Y448880D01*
X574474Y447643D01*
X566314D01*
X568299Y448726D01*
X569505Y450620D01*
X568540Y452749D01*
X566314Y454500D01*
X574461D01*
X572278Y452317D01*
D02*
G37*
G36*
X642621Y249944D02*
X642089Y247934D01*
X642752Y246506D01*
X644816Y244871D01*
X636656D01*
X638642Y246353D01*
X639847Y248247D01*
X638642Y250125D01*
X636656Y251287D01*
X644816D01*
X642621Y249944D01*
D02*
G37*
G36*
X572049Y249849D02*
X571517Y247839D01*
X572181Y246412D01*
X574245Y244777D01*
X566085D01*
X568071Y246259D01*
X569276Y248153D01*
X568071Y250030D01*
X566085Y251193D01*
X574245D01*
X572049Y249849D01*
D02*
G37*
G36*
X584023Y244051D02*
X583491Y242041D01*
X584155Y240614D01*
X586219Y238979D01*
X578059D01*
X580045Y240460D01*
X581250Y242354D01*
X580045Y244232D01*
X578059Y245394D01*
X586219D01*
X584023Y244051D01*
D02*
G37*
G36*
X654312Y243957D02*
X653780Y241947D01*
X654443Y240519D01*
X656508Y238884D01*
X648348D01*
X650333Y240366D01*
X651539Y242260D01*
X650333Y244138D01*
X648348Y245300D01*
X656508D01*
X654312Y243957D01*
D02*
G37*
G36*
X630505D02*
X629973Y241947D01*
X630637Y240519D01*
X632701Y238884D01*
X624541D01*
X626527Y240366D01*
X627732Y242260D01*
X626527Y244138D01*
X624541Y245300D01*
X632701D01*
X630505Y243957D01*
D02*
G37*
G36*
X560641Y243957D02*
X560109Y241947D01*
X560772Y240519D01*
X562837Y238884D01*
X554677D01*
X556663Y240366D01*
X557868Y242260D01*
X556663Y244138D01*
X554677Y245300D01*
X562837D01*
X560641Y243957D01*
D02*
G37*
G36*
X503638Y222732D02*
X498913D01*
Y230685D01*
X503638D01*
Y222732D01*
D02*
G37*
G36*
X463087D02*
X458362D01*
Y230685D01*
X463087D01*
Y222732D01*
D02*
G37*
G36*
X499832Y220582D02*
X500385Y220028D01*
X500685Y219305D01*
X500685Y218913D01*
Y194071D01*
X461315D01*
Y218913D01*
X461315D01*
Y219305D01*
X461615Y220028D01*
X462168Y220582D01*
X462892Y220882D01*
X463675D01*
X464398Y220582D01*
X464952Y220028D01*
X465252Y219305D01*
Y218913D01*
X496748D01*
Y219305D01*
X497048Y220028D01*
X497602Y220582D01*
X498325Y220882D01*
X499108D01*
X499832Y220582D01*
D02*
G37*
G36*
X666785Y238473D02*
X666973Y238285D01*
X667075Y238039D01*
Y237906D01*
Y199205D01*
X613925D01*
Y237906D01*
Y238039D01*
X614027Y238285D01*
X614215Y238473D01*
X614461Y238575D01*
X666539D01*
X666785Y238473D01*
D02*
G37*
G36*
X596785D02*
X596973Y238285D01*
X597075Y238039D01*
Y237906D01*
Y199205D01*
X543925D01*
Y237906D01*
Y238039D01*
X544027Y238285D01*
X544215Y238473D01*
X544461Y238575D01*
X596539D01*
X596785Y238473D01*
D02*
G37*
D32*
X487500Y415000D02*
D03*
Y408000D02*
D03*
Y401000D02*
D03*
X480500D02*
D03*
Y408000D02*
D03*
Y415000D02*
D03*
X528500Y387000D02*
D03*
D62*
X448587Y465815D02*
Y473768D01*
X443862Y465815D02*
X448587D01*
X443862D02*
Y473768D01*
X448587D01*
X489138Y465815D02*
Y473768D01*
X484413Y465815D02*
X489138D01*
X484413D02*
Y473768D01*
X489138D01*
X486185Y499500D02*
X543925D01*
X486185Y477587D02*
Y499500D01*
Y477587D02*
X486185D01*
Y477195D02*
Y477587D01*
X485885Y476472D02*
X486185Y477195D01*
X485332Y475918D02*
X485885Y476472D01*
X484608Y475618D02*
X485332Y475918D01*
X483825Y475618D02*
X484608D01*
X483102Y475918D02*
X483825Y475618D01*
X482548Y476472D02*
X483102Y475918D01*
X482248Y477195D02*
X482548Y476472D01*
X482248Y477195D02*
Y477587D01*
X450752D02*
X482248D01*
X450752Y477195D02*
Y477587D01*
X450452Y476472D02*
X450752Y477195D01*
X449898Y475918D02*
X450452Y476472D01*
X449175Y475618D02*
X449898Y475918D01*
X448392Y475618D02*
X449175D01*
X447668Y475918D02*
X448392Y475618D01*
X447115Y476472D02*
X447668Y475918D01*
X446815Y477195D02*
X447115Y476472D01*
X446815Y477195D02*
X446815Y477587D01*
Y499500D01*
X398995D02*
X446815D01*
X463087Y222732D02*
Y230685D01*
X458362Y222732D02*
X463087D01*
X458362D02*
Y230685D01*
X463087D01*
X503638Y222732D02*
Y230685D01*
X498913Y222732D02*
X503638D01*
X498913D02*
Y230685D01*
X503638D01*
X667075Y499500D02*
X699000D01*
X667075Y461095D02*
Y499500D01*
Y460961D02*
Y461095D01*
X666973Y460715D02*
X667075Y460961D01*
X666785Y460527D02*
X666973Y460715D01*
X666539Y460425D02*
X666785Y460527D01*
X614461Y460425D02*
X666539D01*
X614215Y460527D02*
X614461Y460425D01*
X614027Y460715D02*
X614215Y460527D01*
X613925Y460961D02*
X614027Y460715D01*
X613925Y460961D02*
Y461095D01*
Y499500D01*
X597075D02*
X613925D01*
X597075Y461095D02*
Y499500D01*
Y460961D02*
Y461095D01*
X596973Y460715D02*
X597075Y460961D01*
X596785Y460527D02*
X596973Y460715D01*
X596539Y460425D02*
X596785Y460527D01*
X544461Y460425D02*
X596539D01*
X544215Y460527D02*
X544461Y460425D01*
X544027Y460715D02*
X544215Y460527D01*
X543925Y460961D02*
X544027Y460715D01*
X543925Y460961D02*
Y461095D01*
Y499500D01*
X398995Y199508D02*
X461315Y199508D01*
Y218913D01*
X461315D02*
X461315D01*
X461315D02*
Y219305D01*
X465252Y218913D02*
Y219305D01*
Y218913D02*
X496748D01*
Y219305D01*
X497048Y220028D01*
X497602Y220582D01*
X498325Y220882D01*
X499108D01*
X499832Y220582D01*
X500385Y220028D01*
X500685Y219305D01*
X500685Y218913D02*
X500685Y219305D01*
X500685Y199508D02*
Y218913D01*
Y199508D02*
X543925D01*
Y237906D01*
Y238039D01*
X596539Y238575D02*
X596785Y238473D01*
X596973Y238285D01*
X597075Y238039D01*
Y237906D02*
Y238039D01*
Y199508D02*
Y237906D01*
Y199508D02*
X613925D01*
Y237906D01*
Y238039D01*
X666539Y238575D02*
X666785Y238473D01*
X666973Y238285D01*
X667075Y238039D01*
Y237906D02*
Y238039D01*
Y199508D02*
Y237906D01*
Y199508D02*
X699000D01*
X699000Y499500D02*
X699000Y199508D01*
X398995Y499500D02*
X398995Y199508D01*
X614461Y238575D02*
X666539D01*
X614215Y238473D02*
X614461Y238575D01*
X614027Y238285D02*
X614215Y238473D01*
X613925Y238039D02*
X614027Y238285D01*
X544461Y238575D02*
X596539D01*
X544215Y238473D02*
X544461Y238575D01*
X544027Y238285D02*
X544215Y238473D01*
X543925Y238039D02*
X544027Y238285D01*
X464952Y220028D02*
X465252Y219305D01*
X464398Y220582D02*
X464952Y220028D01*
X463675Y220882D02*
X464398Y220582D01*
X462892Y220882D02*
X463675D01*
X462168Y220582D02*
X462892Y220882D01*
X461615Y220028D02*
X462168Y220582D01*
X461315Y219305D02*
X461615Y220028D01*
D77*
X471000Y310000D02*
D03*
X491000D02*
D03*
X461000D02*
D03*
Y380500D02*
D03*
X471000D02*
D03*
X481000D02*
D03*
X491000Y390500D02*
D03*
X481000D02*
D03*
X471000D02*
D03*
X461000D02*
D03*
D78*
X673000Y287000D02*
D03*
Y305500D02*
D03*
Y324000D02*
D03*
X535500Y293000D02*
D03*
Y311500D02*
D03*
Y330000D02*
D03*
X605500Y322500D02*
D03*
Y304000D02*
D03*
Y285500D02*
D03*
D79*
X520500Y232500D02*
D03*
X612000Y433000D02*
D03*
X533500Y355000D02*
D03*
X542000Y371000D02*
D03*
X524000Y449000D02*
D03*
D80*
X418000Y280000D02*
D03*
X436500D02*
D03*
X455000D02*
D03*
D81*
X509063Y474354D02*
D03*
X423146Y365063D02*
D03*
X554752Y242039D02*
D03*
X586248D02*
D03*
X562626D02*
D03*
X578374D02*
D03*
X584279Y247945D02*
D03*
X574437D02*
D03*
X566563D02*
D03*
X586248Y456961D02*
D03*
X554752D02*
D03*
X578374D02*
D03*
X562626D02*
D03*
X556720Y451055D02*
D03*
X566563D02*
D03*
X574437D02*
D03*
X624752Y242039D02*
D03*
X656248D02*
D03*
X632626D02*
D03*
X648374D02*
D03*
X654280Y247945D02*
D03*
X644437D02*
D03*
X636563D02*
D03*
X656248Y456961D02*
D03*
X624752D02*
D03*
X648374D02*
D03*
X632626D02*
D03*
X626721Y451055D02*
D03*
X636563D02*
D03*
X644437D02*
D03*
D82*
X685000Y214000D02*
D03*
X415000Y215000D02*
D03*
X685500Y484000D02*
D03*
X415500Y485000D02*
D03*
D83*
X601405Y240150D02*
D03*
X539595D02*
D03*
X539595Y458850D02*
D03*
X601405D02*
D03*
X671406Y240150D02*
D03*
X609594D02*
D03*
X609594Y458850D02*
D03*
X671406D02*
D03*
D84*
X441303Y471721D02*
D03*
X491697D02*
D03*
X506197Y224780D02*
D03*
X455803D02*
D03*
D85*
X480279Y466405D02*
D03*
X470437D02*
D03*
X462563D02*
D03*
X467220Y230095D02*
D03*
X477063D02*
D03*
X484937D02*
D03*
D86*
X488154Y492587D02*
D03*
X444846D02*
D03*
X459346Y203913D02*
D03*
X502654D02*
D03*
D87*
X423000Y298878D02*
D03*
Y346122D02*
D03*
M02*
