G04*
G04 #@! TF.GenerationSoftware,Altium Limited,Altium Designer,20.0.10 (225)*
G04*
G04 Layer_Physical_Order=1*
G04 Layer_Color=255*
%FSLAX25Y25*%
%MOIN*%
G70*
G01*
G75*
%ADD10C,0.01000*%
%ADD45R,0.02953X0.03347*%
%ADD46R,0.03347X0.03740*%
%ADD47R,0.02500X0.05000*%
%ADD48R,0.03150X0.03740*%
%ADD49R,0.03543X0.03347*%
%ADD50R,0.03347X0.02953*%
%ADD51R,0.03347X0.03543*%
%ADD52R,0.05000X0.02500*%
%ADD53R,0.03740X0.03347*%
%ADD54R,0.04331X0.08661*%
%ADD55R,0.04134X0.03543*%
%ADD56R,0.03543X0.04134*%
%ADD57R,0.02756X0.03347*%
%ADD58R,0.04331X0.09843*%
%ADD59R,0.05906X0.05906*%
%ADD60R,0.05906X0.05906*%
%ADD61R,0.06102X0.07480*%
%ADD62C,0.04000*%
%ADD63C,0.03000*%
%ADD64C,0.06000*%
%ADD65R,0.06000X0.06000*%
%ADD66R,0.08000X0.08000*%
%ADD67R,0.08000X0.08000*%
%ADD68C,0.04724*%
%ADD69R,0.04724X0.04724*%
%ADD70R,0.04724X0.04724*%
%ADD71O,0.05512X0.11811*%
%ADD72O,0.04724X0.08661*%
%ADD73C,0.05591*%
%ADD74C,0.03150*%
%ADD75C,0.05512*%
%ADD76C,0.05000*%
G36*
X485750Y307250D02*
Y306930D01*
X485625Y306302D01*
X485380Y305711D01*
X485024Y305178D01*
X484572Y304726D01*
X484039Y304370D01*
X483448Y304125D01*
X482820Y304000D01*
X482500D01*
Y291500D01*
X475500D01*
X475500Y330000D01*
X485750Y330000D01*
X485750Y307250D01*
D02*
G37*
G36*
X506000Y357500D02*
X487000D01*
Y384500D01*
X490358D01*
X490358Y384500D01*
X490458D01*
X490557Y384480D01*
X491000Y384480D01*
X491443D01*
X491542Y384500D01*
X506000D01*
Y357500D01*
D02*
G37*
G36*
X478877Y418535D02*
X492000Y418536D01*
X492000Y418535D01*
X492000Y418535D01*
X492000D01*
X492490Y418511D01*
X493123Y418374D01*
X493814Y418058D01*
X494422Y417603D01*
X494920Y417029D01*
X495284Y416363D01*
X495499Y415634D01*
X495554Y414876D01*
X495500Y414500D01*
X495500Y390000D01*
X495500Y390000D01*
Y389557D01*
X495327Y388687D01*
X494988Y387868D01*
X494495Y387131D01*
X493868Y386505D01*
X493131Y386012D01*
X492313Y385673D01*
X491443Y385500D01*
X491000D01*
X490557Y385500D01*
X489687Y385673D01*
X488868Y386012D01*
X488131Y386505D01*
X487504Y387131D01*
X487012Y387868D01*
X486673Y388687D01*
X486500Y389557D01*
X486500Y390000D01*
Y394500D01*
X486462Y394890D01*
X486163Y395611D01*
X485611Y396163D01*
X484890Y396462D01*
X484500Y396500D01*
X479000Y396500D01*
X479000Y396500D01*
X478552Y396549D01*
X477762Y396983D01*
X477199Y397686D01*
X476949Y398552D01*
X477000Y399000D01*
X477000Y417500D01*
X477094Y417783D01*
X477475Y418241D01*
X477997Y418529D01*
X478588Y418607D01*
X478877Y418535D01*
D02*
G37*
G36*
X558150Y349783D02*
D01*
D02*
G37*
%LPC*%
G36*
X481000Y312549D02*
X480024Y312355D01*
X479198Y311802D01*
X478645Y310976D01*
X478451Y310000D01*
Y309188D01*
X478645Y308213D01*
X479198Y307386D01*
X480024Y306833D01*
X481000Y306639D01*
X481976Y306833D01*
X482802Y307386D01*
X483355Y308213D01*
X483549Y309188D01*
Y310000D01*
X483355Y310976D01*
X482802Y311802D01*
X481976Y312355D01*
X481000Y312549D01*
D02*
G37*
%LPD*%
D10*
X536000Y268059D02*
Y293000D01*
X605500Y336559D02*
X606059Y336000D01*
X605500Y336559D02*
Y364000D01*
X525559Y268059D02*
X536000D01*
X502000Y261500D02*
X519000D01*
X525559Y268059D01*
X493936Y263436D02*
X501500Y271000D01*
X514890D01*
X515500Y271610D01*
X481000Y256500D02*
X492000D01*
X478461Y259039D02*
Y263000D01*
Y259039D02*
X481000Y256500D01*
X492000Y261500D02*
X493186D01*
X493936Y262250D01*
Y263436D01*
X605500Y322500D02*
X606059Y323059D01*
Y336000D01*
X672500Y377000D02*
Y412500D01*
X677390Y417390D01*
X684000D01*
X605500Y374000D02*
Y409000D01*
X610890Y414390D02*
X617000D01*
X605500Y409000D02*
X610890Y414390D01*
X663961Y418705D02*
X667500Y415165D01*
Y377000D02*
Y415165D01*
X663961Y418705D02*
Y419000D01*
X672780Y338779D02*
X673059Y338500D01*
X672780Y338779D02*
Y366721D01*
X672500Y367000D02*
X672780Y366721D01*
X673000Y324000D02*
X673059Y324059D01*
Y338500D01*
X600500Y374000D02*
Y409165D01*
X594461Y415205D02*
X600500Y409165D01*
X594461Y415205D02*
Y415500D01*
D45*
X667941Y338500D02*
D03*
X673059D02*
D03*
X600941Y336000D02*
D03*
X606059D02*
D03*
D46*
X667658Y356000D02*
D03*
X662343D02*
D03*
X600658Y353000D02*
D03*
X595342D02*
D03*
D47*
X672500Y367000D02*
D03*
X667500D02*
D03*
X662500D02*
D03*
X672500Y377000D02*
D03*
X667500D02*
D03*
X662500D02*
D03*
X605500Y364000D02*
D03*
X600500D02*
D03*
X595500D02*
D03*
X605500Y374000D02*
D03*
X600500D02*
D03*
X595500D02*
D03*
D48*
X659039Y419000D02*
D03*
X663961D02*
D03*
X589539Y415500D02*
D03*
X594461D02*
D03*
X473539Y263000D02*
D03*
X478461D02*
D03*
D49*
X643500Y415236D02*
D03*
Y419764D02*
D03*
X575000Y410736D02*
D03*
Y415264D02*
D03*
D50*
X536000Y262941D02*
D03*
Y268059D02*
D03*
D51*
X467264Y242000D02*
D03*
X462736D02*
D03*
X493736Y400500D02*
D03*
X498264D02*
D03*
X493736Y406000D02*
D03*
X498264D02*
D03*
D52*
X502000Y261500D02*
D03*
Y256500D02*
D03*
Y251500D02*
D03*
X492000Y261500D02*
D03*
Y256500D02*
D03*
Y251500D02*
D03*
D53*
X518500Y256658D02*
D03*
Y251343D02*
D03*
D54*
X528500Y400677D02*
D03*
Y435323D02*
D03*
D55*
X577500Y264342D02*
D03*
Y269657D02*
D03*
X617000Y386658D02*
D03*
Y381343D02*
D03*
X647500Y262842D02*
D03*
Y268158D02*
D03*
X684000Y390657D02*
D03*
Y385343D02*
D03*
X515500Y294843D02*
D03*
Y300157D02*
D03*
D56*
X497342Y436000D02*
D03*
X502658D02*
D03*
D57*
X443039Y256000D02*
D03*
X447961D02*
D03*
D58*
X540382Y212197D02*
D03*
X600618D02*
D03*
X600618Y486803D02*
D03*
X540382D02*
D03*
X610382Y212197D02*
D03*
X670618D02*
D03*
X670618Y486803D02*
D03*
X610382D02*
D03*
D59*
X577500Y294890D02*
D03*
Y281110D02*
D03*
X617000Y414390D02*
D03*
Y400610D02*
D03*
X647500Y295390D02*
D03*
Y281610D02*
D03*
X684000Y417390D02*
D03*
Y403610D02*
D03*
X515500Y271610D02*
D03*
Y285390D02*
D03*
D60*
X464500Y436000D02*
D03*
X478279D02*
D03*
X417110Y256000D02*
D03*
X430890D02*
D03*
D61*
X479193Y296000D02*
D03*
X490807D02*
D03*
D62*
X455000Y258343D02*
Y280000D01*
X485136D01*
X490654Y285518D01*
X452657Y256000D02*
X455000Y258343D01*
X447961Y256000D02*
X452657D01*
X490807Y309653D02*
X502153D01*
X490807D02*
Y309807D01*
Y296000D02*
Y309653D01*
X490654Y285518D02*
Y296000D01*
X490807Y309807D02*
X491000Y310000D01*
X589500Y415539D02*
X589539Y415500D01*
X464500Y436000D02*
Y454626D01*
X452720Y466405D02*
X464500Y454626D01*
X430890Y256000D02*
X442961D01*
X517386Y338886D02*
X533500Y355000D01*
X517386Y324886D02*
Y338886D01*
X502153Y309653D02*
X517386Y324886D01*
X423000Y298469D02*
Y298878D01*
Y298469D02*
X428843Y292626D01*
Y287657D02*
Y292626D01*
Y287657D02*
X436500Y280000D01*
X423073Y364990D02*
X423146Y365063D01*
X423073Y346195D02*
Y364990D01*
X423000Y346122D02*
X423073Y346195D01*
D63*
X481000Y309188D02*
Y310000D01*
X595500Y350854D02*
Y364000D01*
X617000Y381343D02*
Y381614D01*
Y305757D02*
Y381343D01*
X605500Y304000D02*
X615243D01*
X597100D02*
X605500D01*
X502000Y251500D02*
X534500D01*
X498264Y400500D02*
Y406000D01*
Y382257D02*
Y400500D01*
X533383Y260383D02*
X536000Y263000D01*
X492000Y251360D02*
Y251500D01*
Y245500D02*
Y251360D01*
X469021D02*
X492000D01*
X467228Y230102D02*
Y242000D01*
X626721Y451055D02*
X633872Y443904D01*
X502658Y436000D02*
X502794Y435864D01*
X502569Y436089D02*
X502658Y436000D01*
X502794Y435864D02*
X528500D01*
X502569Y446746D02*
X502658Y446658D01*
X501315Y448000D02*
X502569Y446746D01*
X556720Y421279D02*
X567091Y410910D01*
X556720Y421279D02*
Y451055D01*
X615243Y304000D02*
X617000Y305757D01*
Y386658D02*
Y400610D01*
X496506Y380500D02*
X498264Y382257D01*
X491000Y380500D02*
X496506D01*
X515500Y285390D02*
Y294843D01*
X417110Y246890D02*
X422000Y242000D01*
X417110Y246890D02*
Y256000D01*
X422000Y242000D02*
X445000D01*
X462736D01*
Y251902D02*
X473539Y262705D01*
Y263000D01*
X462736Y242000D02*
Y251902D01*
X518421Y256579D02*
X518500Y256658D01*
X502079Y256579D02*
X518421D01*
X502000Y256500D02*
X502079Y256579D01*
X518500Y256658D02*
X518673Y256831D01*
X523790D01*
X526959Y260000D01*
X527500D01*
X527883Y260383D02*
X533383D01*
X527500Y260000D02*
X527883Y260383D01*
X536000Y262941D02*
Y263000D01*
X556720Y288720D02*
X562890Y294890D01*
X577500D01*
X556720Y247945D02*
Y288720D01*
X626721Y289721D02*
X632390Y295390D01*
X647500D01*
X626721Y247945D02*
Y289721D01*
X667579Y356079D02*
X667658Y356000D01*
X667579Y356079D02*
Y366921D01*
X667500Y367000D02*
X667579Y366921D01*
X667658Y356000D02*
X667829Y355829D01*
Y348171D02*
Y355829D01*
Y348171D02*
X668000Y348000D01*
X667965Y347965D02*
X668000Y348000D01*
X667941Y338500D02*
X667965Y338524D01*
Y347965D01*
X600579Y353079D02*
X600658Y353000D01*
X600579Y353079D02*
Y363921D01*
X600500Y364000D02*
X600579Y363921D01*
X600658Y353000D02*
X600829Y352829D01*
Y344171D02*
Y352829D01*
Y344171D02*
X601000Y344000D01*
X600941Y336000D02*
X600965Y336024D01*
Y343965D01*
X601000Y344000D01*
X595342Y350697D02*
X595500Y350854D01*
X595342Y305757D02*
Y350697D01*
Y305757D02*
X597100Y304000D01*
X673000Y305500D02*
X680500D01*
X666000D02*
X673000D01*
X535500Y311500D02*
X545743D01*
X527138D02*
X535500D01*
X575000Y415264D02*
Y441776D01*
X584279Y451055D01*
X567091Y410910D02*
X574827D01*
X575000Y410736D01*
X584279Y451055D02*
X589500Y445835D01*
Y415539D02*
Y445835D01*
X643500Y415236D02*
X647764D01*
X635629D02*
X643500D01*
X612000Y433000D02*
X612574Y433574D01*
Y436909D01*
X626721Y451055D01*
Y451055D01*
X659039Y419000D02*
Y446295D01*
X654280Y451055D02*
X659039Y446295D01*
X643500Y420500D02*
Y440276D01*
X654280Y451055D01*
X647764Y415236D02*
X662500Y400500D01*
X633872Y416994D02*
Y443904D01*
Y416994D02*
X635629Y415236D01*
X662500Y377000D02*
Y400500D01*
X652522Y262842D02*
X654280Y261085D01*
Y247945D02*
Y261085D01*
X647500Y262842D02*
X652522D01*
X577500Y264342D02*
X582522D01*
X584279Y262585D01*
Y247945D02*
Y262585D01*
X647500Y268158D02*
Y281610D01*
X515795Y300157D02*
X527138Y311500D01*
X545743D02*
X547500Y309743D01*
Y264500D02*
Y309743D01*
X515500Y300157D02*
X515795D01*
X514500Y238500D02*
X520500Y232500D01*
X492000Y245500D02*
X499000Y238500D01*
X514500D01*
X534500Y251500D02*
X547500Y264500D01*
X467264Y242000D02*
Y249603D01*
X469021Y251360D01*
X467220Y230095D02*
X467228Y230102D01*
X684000Y309000D02*
Y385343D01*
X680500Y305500D02*
X684000Y309000D01*
Y390657D02*
Y403610D01*
X595500Y374000D02*
Y397500D01*
X575000Y410736D02*
X582264D01*
X595500Y397500D01*
X542000Y371000D02*
X575000Y404000D01*
X662343Y309157D02*
Y356000D01*
Y309157D02*
X666000Y305500D01*
X662343Y356000D02*
X662421Y356079D01*
Y366921D01*
X662500Y367000D01*
X575000Y404000D02*
Y410736D01*
X528500Y387000D02*
Y400677D01*
X529000Y436364D02*
Y445243D01*
X525817Y448426D02*
X529000Y445243D01*
X524574Y448426D02*
X525817D01*
X524000Y449000D02*
X524574Y448426D01*
X528500Y435864D02*
X529000Y436364D01*
X502569Y436089D02*
Y446746D01*
X683945Y403555D02*
X684000Y403610D01*
X486000Y448000D02*
X501315D01*
X480279Y453721D02*
X486000Y448000D01*
X480279Y453721D02*
Y463406D01*
X509000Y474291D02*
X509063Y474354D01*
X509000Y453000D02*
Y474291D01*
X502658Y446658D02*
X509000Y453000D01*
X478279Y436000D02*
X497342D01*
X577500Y270657D02*
Y281110D01*
X647500Y281610D02*
X647555Y281555D01*
D64*
X471000Y310000D02*
D03*
X481000D02*
D03*
X461000D02*
D03*
Y380500D02*
D03*
X471000D02*
D03*
X481000D02*
D03*
X491000D02*
D03*
Y390500D02*
D03*
X481000D02*
D03*
X471000D02*
D03*
X520500Y232500D02*
D03*
X612000Y433000D02*
D03*
X533500Y355000D02*
D03*
X542000Y371000D02*
D03*
X524000Y449000D02*
D03*
X522000Y369500D02*
D03*
X685000Y214000D02*
D03*
X415000Y215000D02*
D03*
X685500Y484000D02*
D03*
X415500Y485000D02*
D03*
D65*
X491000Y310000D02*
D03*
X461000Y390500D02*
D03*
D66*
X673000Y287000D02*
D03*
Y305500D02*
D03*
Y324000D02*
D03*
X535500Y293000D02*
D03*
Y311500D02*
D03*
Y330000D02*
D03*
X605500Y322500D02*
D03*
Y304000D02*
D03*
Y285500D02*
D03*
D67*
X418000Y280000D02*
D03*
X436500D02*
D03*
X455000D02*
D03*
D68*
X509063Y474354D02*
D03*
X423146Y365063D02*
D03*
X554752Y242039D02*
D03*
X586248D02*
D03*
X562626D02*
D03*
X570500D02*
D03*
X578374D02*
D03*
X584279Y247945D02*
D03*
X556720D02*
D03*
X574437D02*
D03*
X566563D02*
D03*
X586248Y456961D02*
D03*
X554752D02*
D03*
X578374D02*
D03*
X570500D02*
D03*
X562626D02*
D03*
X556720Y451055D02*
D03*
X584279D02*
D03*
X566563D02*
D03*
X574437D02*
D03*
X624752Y242039D02*
D03*
X656248D02*
D03*
X632626D02*
D03*
X640500D02*
D03*
X648374D02*
D03*
X654280Y247945D02*
D03*
X626721D02*
D03*
X644437D02*
D03*
X636563D02*
D03*
X656248Y456961D02*
D03*
X624752D02*
D03*
X648374D02*
D03*
X640500D02*
D03*
X632626D02*
D03*
X626721Y451055D02*
D03*
X654280D02*
D03*
X636563D02*
D03*
X644437D02*
D03*
D69*
X516937Y474354D02*
D03*
D70*
X423146Y372937D02*
D03*
D71*
X601405Y240150D02*
D03*
X539595D02*
D03*
X539595Y458850D02*
D03*
X601405D02*
D03*
X671406Y240150D02*
D03*
X609594D02*
D03*
X609594Y458850D02*
D03*
X671406D02*
D03*
D72*
X441303Y471721D02*
D03*
X491697D02*
D03*
X506197Y224780D02*
D03*
X455803D02*
D03*
D73*
X480279Y466405D02*
D03*
X452720D02*
D03*
X470437D02*
D03*
X462563D02*
D03*
X467220Y230095D02*
D03*
X494779D02*
D03*
X477063D02*
D03*
X484937D02*
D03*
D74*
X488154Y492587D02*
D03*
X444846D02*
D03*
X459346Y203913D02*
D03*
X502654D02*
D03*
D75*
X423000Y298878D02*
D03*
Y346122D02*
D03*
D76*
X495000Y371000D02*
D03*
Y362500D02*
D03*
X481000Y319000D02*
D03*
Y326000D02*
D03*
X502500Y362500D02*
D03*
Y371000D02*
D03*
Y378000D02*
D03*
X487500Y415000D02*
D03*
Y408000D02*
D03*
Y401000D02*
D03*
X480500D02*
D03*
Y408000D02*
D03*
Y415000D02*
D03*
X601000Y344000D02*
D03*
X527500Y260000D02*
D03*
X445000Y242000D02*
D03*
X668000Y348000D02*
D03*
X528500Y387000D02*
D03*
M02*
