G04*
G04 #@! TF.GenerationSoftware,Altium Limited,Altium Designer,20.0.10 (225)*
G04*
G04 Layer_Physical_Order=2*
G04 Layer_Color=128*
%FSLAX25Y25*%
%MOIN*%
G70*
G01*
G75*
%ADD32C,0.06800*%
%ADD62C,0.04000*%
%ADD77C,0.07937*%
%ADD78R,0.09000X0.09000*%
%ADD79C,0.07000*%
%ADD80R,0.09000X0.09000*%
%ADD81C,0.06756*%
%ADD82C,0.18000*%
%ADD83O,0.07150X0.13252*%
%ADD84O,0.06362X0.10299*%
%ADD85C,0.07622*%
%ADD86C,0.07150*%
%ADD87C,0.07543*%
G36*
X486185Y477587D02*
X486185D01*
Y477195D01*
X485885Y476472D01*
X485332Y475918D01*
X484608Y475618D01*
X483825D01*
X483102Y475918D01*
X482548Y476472D01*
X482248Y477195D01*
Y477587D01*
X450752D01*
Y477195D01*
X450452Y476472D01*
X449898Y475918D01*
X449175Y475618D01*
X448392D01*
X447668Y475918D01*
X447115Y476472D01*
X446815Y477195D01*
X446815Y477587D01*
Y502429D01*
X486185D01*
Y477587D01*
D02*
G37*
G36*
X489138Y465815D02*
X484413D01*
Y473768D01*
X489138D01*
Y465815D01*
D02*
G37*
G36*
X448587D02*
X443862D01*
Y473768D01*
X448587D01*
Y465815D01*
D02*
G37*
G36*
X597075Y461095D02*
Y460961D01*
X596973Y460715D01*
X596785Y460527D01*
X596539Y460425D01*
X544461D01*
X544215Y460527D01*
X544027Y460715D01*
X543925Y460961D01*
Y461095D01*
Y499795D01*
X597075D01*
Y461095D01*
D02*
G37*
G36*
X667075D02*
Y460961D01*
X666973Y460715D01*
X666785Y460527D01*
X666539Y460425D01*
X656288D01*
X654194Y458331D01*
X653662Y456321D01*
X654325Y454894D01*
X656390Y453656D01*
X648230D01*
X650215Y454740D01*
X651421Y456634D01*
X650456Y458763D01*
X648358Y460425D01*
X632243D01*
X630149Y458331D01*
X629617Y456321D01*
X630280Y454894D01*
X632345Y453656D01*
X624185D01*
X626170Y454740D01*
X627376Y456634D01*
X626411Y458763D01*
X624313Y460425D01*
X614461D01*
X614215Y460527D01*
X614027Y460715D01*
X613925Y460961D01*
Y461095D01*
Y499795D01*
X667075D01*
Y461095D01*
D02*
G37*
G36*
X583964Y458675D02*
X583432Y456665D01*
X584096Y455237D01*
X586160Y453602D01*
X578000D01*
X579986Y455084D01*
X581191Y456978D01*
X579986Y458855D01*
X578000Y460018D01*
X586160D01*
X583964Y458675D01*
D02*
G37*
G36*
X562215Y459745D02*
X562648D01*
X560584Y458619D01*
X559974Y456573D01*
X560596Y455237D01*
X562323Y453869D01*
X562809Y453563D01*
X557783Y453602D01*
X554500D01*
X554534Y453627D01*
X554308Y453629D01*
X555157Y454093D01*
X556486Y455084D01*
X557604Y456841D01*
X556474Y458855D01*
X554488Y459745D01*
X554965D01*
X554500Y460018D01*
X562660D01*
X562215Y459745D01*
D02*
G37*
G36*
X572278Y452317D02*
X571746Y450307D01*
X572409Y448880D01*
X574474Y447643D01*
X566314D01*
X568299Y448726D01*
X569505Y450620D01*
X568540Y452749D01*
X566314Y454513D01*
X574474Y454513D01*
X572278Y452317D01*
D02*
G37*
G36*
X642185Y452214D02*
X641653Y450204D01*
X642317Y448776D01*
X644381Y447539D01*
X636221D01*
X638207Y448623D01*
X639412Y450517D01*
X638448Y452645D01*
X636221Y454409D01*
X644381Y454410D01*
X642185Y452214D01*
D02*
G37*
G36*
X642278Y249317D02*
X641746Y247307D01*
X642409Y245880D01*
X644474Y244642D01*
X636314D01*
X638300Y245726D01*
X639505Y247620D01*
X638540Y249749D01*
X636314Y251513D01*
X644474Y251513D01*
X642278Y249317D01*
D02*
G37*
G36*
X571989Y249271D02*
X571457Y247261D01*
X572121Y245834D01*
X574185Y244597D01*
X566025D01*
X568011Y245680D01*
X569216Y247574D01*
X568252Y249703D01*
X566025Y251467D01*
X574185Y251467D01*
X571989Y249271D01*
D02*
G37*
G36*
X560342Y243332D02*
X559810Y241322D01*
X560473Y239895D01*
X562538Y238658D01*
X554378D01*
X556364Y239741D01*
X557569Y241636D01*
X556605Y243764D01*
X554378Y245528D01*
X562538Y245528D01*
X560342Y243332D01*
D02*
G37*
G36*
X654236Y243218D02*
X653704Y241208D01*
X654368Y239781D01*
X656380Y238575D01*
X666539D01*
X666785Y238473D01*
X666973Y238285D01*
X667075Y238039D01*
Y237906D01*
Y199205D01*
X613925D01*
Y237906D01*
Y238039D01*
X614027Y238285D01*
X614215Y238473D01*
X614461Y238575D01*
X624703D01*
X626631Y239627D01*
X627836Y241521D01*
X626872Y243650D01*
X624645Y245414D01*
X632805Y245414D01*
X630610Y243218D01*
X630077Y241208D01*
X630741Y239781D01*
X632753Y238575D01*
X648330D01*
X650258Y239627D01*
X651463Y241521D01*
X650499Y243650D01*
X648272Y245414D01*
X656432Y245414D01*
X654236Y243218D01*
D02*
G37*
G36*
X503638Y222732D02*
X498913D01*
Y230685D01*
X503638D01*
Y222732D01*
D02*
G37*
G36*
X463087D02*
X458362D01*
Y230685D01*
X463087D01*
Y222732D01*
D02*
G37*
G36*
X499832Y220582D02*
X500385Y220028D01*
X500685Y219305D01*
X500685Y218913D01*
Y194071D01*
X461315D01*
Y218913D01*
X461315D01*
Y219305D01*
X461615Y220028D01*
X462168Y220582D01*
X462892Y220882D01*
X463675D01*
X464398Y220582D01*
X464952Y220028D01*
X465252Y219305D01*
Y218913D01*
X496748D01*
Y219305D01*
X497048Y220028D01*
X497602Y220582D01*
X498325Y220882D01*
X499108D01*
X499832Y220582D01*
D02*
G37*
G36*
X584398Y243221D02*
X583865Y241211D01*
X584529Y239784D01*
X586547Y238575D01*
X596539D01*
X596785Y238473D01*
X596973Y238285D01*
X597075Y238039D01*
Y237906D01*
Y199205D01*
X543925D01*
Y237906D01*
Y238039D01*
X544027Y238285D01*
X544215Y238473D01*
X544461Y238575D01*
X578484D01*
X580419Y239631D01*
X581624Y241525D01*
X580660Y243653D01*
X578433Y245417D01*
X586593Y245417D01*
X584398Y243221D01*
D02*
G37*
D32*
X495000Y371000D02*
D03*
Y362500D02*
D03*
X481000Y319000D02*
D03*
Y326000D02*
D03*
X502500Y362500D02*
D03*
Y371000D02*
D03*
Y378000D02*
D03*
X601000Y344000D02*
D03*
X527500Y260000D02*
D03*
X445000Y242000D02*
D03*
X668000Y348000D02*
D03*
D62*
X448587Y465815D02*
Y473768D01*
X443862Y465815D02*
X448587D01*
X443862D02*
Y473768D01*
X448587D01*
X489138Y465815D02*
Y473768D01*
X484413Y465815D02*
X489138D01*
X484413D02*
Y473768D01*
X489138D01*
X486185Y499500D02*
X543925D01*
X486185Y477587D02*
Y499500D01*
Y477587D02*
X486185D01*
Y477195D02*
Y477587D01*
X485885Y476472D02*
X486185Y477195D01*
X485332Y475918D02*
X485885Y476472D01*
X484608Y475618D02*
X485332Y475918D01*
X483825Y475618D02*
X484608D01*
X483102Y475918D02*
X483825Y475618D01*
X482548Y476472D02*
X483102Y475918D01*
X482248Y477195D02*
X482548Y476472D01*
X482248Y477195D02*
Y477587D01*
X450752D02*
X482248D01*
X450752Y477195D02*
Y477587D01*
X450452Y476472D02*
X450752Y477195D01*
X449898Y475918D02*
X450452Y476472D01*
X449175Y475618D02*
X449898Y475918D01*
X448392Y475618D02*
X449175D01*
X447668Y475918D02*
X448392Y475618D01*
X447115Y476472D02*
X447668Y475918D01*
X446815Y477195D02*
X447115Y476472D01*
X446815Y477195D02*
X446815Y477587D01*
Y499500D01*
X398995D02*
X446815D01*
X463087Y222732D02*
Y230685D01*
X458362Y222732D02*
X463087D01*
X458362D02*
Y230685D01*
X463087D01*
X503638Y222732D02*
Y230685D01*
X498913Y222732D02*
X503638D01*
X498913D02*
Y230685D01*
X503638D01*
X667075Y499500D02*
X699000D01*
X667075Y461095D02*
Y499500D01*
Y460961D02*
Y461095D01*
X666973Y460715D02*
X667075Y460961D01*
X666785Y460527D02*
X666973Y460715D01*
X666539Y460425D02*
X666785Y460527D01*
X614461Y460425D02*
X666539D01*
X614215Y460527D02*
X614461Y460425D01*
X614027Y460715D02*
X614215Y460527D01*
X613925Y460961D02*
X614027Y460715D01*
X613925Y460961D02*
Y461095D01*
Y499500D01*
X597075D02*
X613925D01*
X597075Y461095D02*
Y499500D01*
Y460961D02*
Y461095D01*
X596973Y460715D02*
X597075Y460961D01*
X596785Y460527D02*
X596973Y460715D01*
X596539Y460425D02*
X596785Y460527D01*
X544461Y460425D02*
X596539D01*
X544215Y460527D02*
X544461Y460425D01*
X544027Y460715D02*
X544215Y460527D01*
X543925Y460961D02*
X544027Y460715D01*
X543925Y460961D02*
Y461095D01*
Y499500D01*
X398995Y199508D02*
X461315Y199508D01*
Y218913D01*
X461315D02*
X461315D01*
X461315D02*
Y219305D01*
X465252Y218913D02*
Y219305D01*
Y218913D02*
X496748D01*
Y219305D01*
X497048Y220028D01*
X497602Y220582D01*
X498325Y220882D01*
X499108D01*
X499832Y220582D01*
X500385Y220028D01*
X500685Y219305D01*
X500685Y218913D02*
X500685Y219305D01*
X500685Y199508D02*
Y218913D01*
Y199508D02*
X543925D01*
Y237906D01*
Y238039D01*
X596539Y238575D02*
X596785Y238473D01*
X596973Y238285D01*
X597075Y238039D01*
Y237906D02*
Y238039D01*
Y199508D02*
Y237906D01*
Y199508D02*
X613925D01*
Y237906D01*
Y238039D01*
X666539Y238575D02*
X666785Y238473D01*
X666973Y238285D01*
X667075Y238039D01*
Y237906D02*
Y238039D01*
Y199508D02*
Y237906D01*
Y199508D02*
X699000D01*
X699000Y499500D02*
X699000Y199508D01*
X398995Y499500D02*
X398995Y199508D01*
X614461Y238575D02*
X666539D01*
X614215Y238473D02*
X614461Y238575D01*
X614027Y238285D02*
X614215Y238473D01*
X613925Y238039D02*
X614027Y238285D01*
X544461Y238575D02*
X596539D01*
X544215Y238473D02*
X544461Y238575D01*
X544027Y238285D02*
X544215Y238473D01*
X543925Y238039D02*
X544027Y238285D01*
X464952Y220028D02*
X465252Y219305D01*
X464398Y220582D02*
X464952Y220028D01*
X463675Y220882D02*
X464398Y220582D01*
X462892Y220882D02*
X463675D01*
X462168Y220582D02*
X462892Y220882D01*
X461615Y220028D02*
X462168Y220582D01*
X461315Y219305D02*
X461615Y220028D01*
D77*
X471000Y310000D02*
D03*
X481000D02*
D03*
X491000D02*
D03*
X461000D02*
D03*
Y380500D02*
D03*
X471000D02*
D03*
X481000D02*
D03*
X491000D02*
D03*
X481000Y390500D02*
D03*
X471000D02*
D03*
X461000D02*
D03*
D78*
X673000Y287000D02*
D03*
Y324000D02*
D03*
X535500Y293000D02*
D03*
Y330000D02*
D03*
X605500Y322500D02*
D03*
Y285500D02*
D03*
D79*
X520500Y232500D02*
D03*
X612000Y433000D02*
D03*
X533500Y355000D02*
D03*
X542000Y371000D02*
D03*
X524000Y449000D02*
D03*
X522000Y369500D02*
D03*
D80*
X418000Y280000D02*
D03*
X436500D02*
D03*
X455000D02*
D03*
D81*
X509063Y474354D02*
D03*
X516937D02*
D03*
X423146Y365063D02*
D03*
Y372937D02*
D03*
X554752Y242039D02*
D03*
X586248D02*
D03*
X562626D02*
D03*
X570500D02*
D03*
X578374D02*
D03*
X584279Y247945D02*
D03*
X556720D02*
D03*
X574437D02*
D03*
X566563D02*
D03*
X586248Y456961D02*
D03*
X554752D02*
D03*
X578374D02*
D03*
X570500D02*
D03*
X562626D02*
D03*
X556720Y451055D02*
D03*
X584279D02*
D03*
X566563D02*
D03*
X574437D02*
D03*
X624752Y242039D02*
D03*
X656248D02*
D03*
X632626D02*
D03*
X640500D02*
D03*
X648374D02*
D03*
X654280Y247945D02*
D03*
X626721D02*
D03*
X644437D02*
D03*
X636563D02*
D03*
X656248Y456961D02*
D03*
X624752D02*
D03*
X648374D02*
D03*
X640500D02*
D03*
X632626D02*
D03*
X626721Y451055D02*
D03*
X654280D02*
D03*
X636563D02*
D03*
X644437D02*
D03*
D82*
X685000Y214000D02*
D03*
X415000Y215000D02*
D03*
X685500Y484000D02*
D03*
X415500Y485000D02*
D03*
D83*
X601405Y240150D02*
D03*
X539595D02*
D03*
X539595Y458850D02*
D03*
X601405D02*
D03*
X671406Y240150D02*
D03*
X609594D02*
D03*
X609594Y458850D02*
D03*
X671406D02*
D03*
D84*
X441303Y471721D02*
D03*
X491697D02*
D03*
X506197Y224780D02*
D03*
X455803D02*
D03*
D85*
X480279Y466405D02*
D03*
X452720D02*
D03*
X470437D02*
D03*
X462563D02*
D03*
X467220Y230095D02*
D03*
X494779D02*
D03*
X477063D02*
D03*
X484937D02*
D03*
D86*
X488154Y492587D02*
D03*
X444846D02*
D03*
X459346Y203913D02*
D03*
X502654D02*
D03*
D87*
X423000Y298878D02*
D03*
Y346122D02*
D03*
M02*
